<svg xmlns="http://www.w3.org/2000/svg" xmlns:xlink="http://www.w3.org/1999/xlink" x="0px" y="0px" viewBox="0 0 78.663 91.663" style="enable-background:new 0 0 78.663 91.663;" xml:space="preserve"><g>		<path d="M39.332,91.662c-0.149,0-0.298-0.024-0.441-0.075l-38-13.35c-0.642-0.226-1.011-0.898-0.854-1.562l15.2-64.525   c0.091-0.389,0.353-0.716,0.712-0.892l22.8-11.125c0.369-0.18,0.799-0.18,1.168,0l22.8,11.125c0.359,0.175,0.62,0.502,0.712,0.892   l15.2,64.525c0.156,0.663-0.213,1.336-0.854,1.562l-38,13.35C39.63,91.638,39.481,91.662,39.332,91.662z M2.902,76.122   l36.43,12.798l36.43-12.798L60.98,13.376L39.332,2.813L17.683,13.376L2.902,76.122z"></path>		<path d="M39.332,91.662c-0.735,0-1.332-0.596-1.332-1.331v-66.75c0-0.735,0.596-1.332,1.332-1.332s1.331,0.596,1.331,1.332v66.75   C40.663,91.067,40.067,91.662,39.332,91.662z"></path>		<path d="M39.333,24.914c-0.493,0-0.967-0.275-1.198-0.748c-0.322-0.661-0.048-1.458,0.613-1.781l22.8-11.125   c0.662-0.322,1.458-0.048,1.78,0.613c0.323,0.661,0.049,1.458-0.612,1.781l-22.8,11.125C39.728,24.87,39.528,24.914,39.333,24.914   z"></path>		<path d="M39.331,24.914c-0.196,0-0.395-0.043-0.583-0.135l-22.8-11.125c-0.661-0.323-0.935-1.12-0.613-1.781   c0.322-0.66,1.12-0.937,1.781-0.613l22.8,11.125c0.661,0.323,0.936,1.12,0.612,1.781C40.297,24.638,39.824,24.914,39.331,24.914z"></path>		<path d="M3.231,78.314c-0.541,0-1.05-0.333-1.249-0.87c-0.255-0.689,0.098-1.456,0.787-1.711l36.1-13.351   c0.691-0.251,1.456,0.099,1.711,0.787c0.255,0.689-0.098,1.456-0.787,1.711l-36.1,13.351C3.541,78.286,3.385,78.314,3.231,78.314z   "></path>		<path d="M77.332,78.314c-0.146,0-0.295-0.024-0.441-0.076l-38-13.351c-0.694-0.243-1.059-1.003-0.815-1.697   c0.243-0.694,1.003-1.062,1.698-0.814l38,13.351c0.693,0.243,1.059,1.004,0.814,1.697C78.395,77.971,77.881,78.314,77.332,78.314z   "></path></g></svg>