<svg xmlns="http://www.w3.org/2000/svg" xmlns:xlink="http://www.w3.org/1999/xlink" x="0px" y="0px" viewBox="0 0 78.198 91.462" style="enable-background:new 0 0 78.198 91.462;" xml:space="preserve"><g>		<path d="M39.099,91.462c-0.266,0-0.531-0.069-0.769-0.209L0.748,69.146C0.285,68.874,0,68.376,0,67.839V23.623   c0-0.537,0.285-1.034,0.748-1.307L38.331,0.209c0.475-0.279,1.063-0.279,1.537,0l37.583,22.107   c0.463,0.272,0.747,0.77,0.747,1.307v44.216c0,0.537-0.284,1.034-0.747,1.307L39.868,91.253   C39.63,91.393,39.365,91.462,39.099,91.462z M3.032,66.972l36.067,21.216l36.068-21.216V24.49L39.099,3.275L3.032,24.49V66.972z"></path>		<path d="M39.099,60.513c-0.837,0-1.516-0.679-1.516-1.516V41.31c0-0.837,0.679-1.516,1.516-1.516s1.516,0.679,1.516,1.516v17.687   C40.615,59.834,39.937,60.513,39.099,60.513z"></path>		<path d="M56.785,60.513c-0.837,0-1.516-0.679-1.516-1.516v-26.53c0-0.837,0.679-1.516,1.516-1.516s1.516,0.679,1.516,1.516v26.53   C58.301,59.834,57.622,60.513,56.785,60.513z"></path>		<path d="M21.413,60.513c-0.837,0-1.516-0.679-1.516-1.516v-8.843c0-0.837,0.679-1.516,1.516-1.516s1.516,0.679,1.516,1.516v8.843   C22.929,59.834,22.25,60.513,21.413,60.513z"></path></g></svg>