<svg xmlns="http://www.w3.org/2000/svg" xmlns:xlink="http://www.w3.org/1999/xlink" x="0px" y="0px" viewBox="0 0 91.325 84.688" style="enable-background:new 0 0 91.325 84.688;" xml:space="preserve"><g>		<path d="M76.635,84.688H14.691C6.59,84.688,0,78.098,0,69.998s6.59-14.69,14.691-14.69h61.944c8.101,0,14.69,6.59,14.69,14.69   S84.735,84.688,76.635,84.688z M14.691,58.141c-6.538,0-11.857,5.319-11.857,11.856s5.319,11.856,11.857,11.856h61.944   c6.537,0,11.856-5.319,11.856-11.856s-5.319-11.856-11.856-11.856H14.691z"></path>		<path d="M72.21,40.443c-10.54,0-19.115-8.575-19.115-19.116c0-10.54,8.575-19.115,19.115-19.115s19.115,8.575,19.115,19.115   C91.325,31.868,82.75,40.443,72.21,40.443z M72.21,5.046c-8.978,0-16.281,7.304-16.281,16.281c0,8.978,7.304,16.282,16.281,16.282   s16.281-7.304,16.281-16.282C88.491,12.35,81.188,5.046,72.21,5.046z"></path>		<path d="M21.328,42.655c-0.363,0-0.726-0.139-1.002-0.415L0.415,22.329C0.149,22.064,0,21.703,0,21.327s0.149-0.736,0.415-1.002   l19.911-19.91c0.553-0.554,1.451-0.554,2.004,0l19.911,19.91c0.266,0.266,0.415,0.626,0.415,1.002s-0.149,0.736-0.415,1.002   L22.33,42.24C22.053,42.516,21.69,42.655,21.328,42.655z M3.421,21.327l17.906,17.907l17.906-17.907L21.328,3.421L3.421,21.327z"></path></g></svg>