<svg xmlns="http://www.w3.org/2000/svg" xmlns:xlink="http://www.w3.org/1999/xlink" x="0px" y="0px" viewBox="0 0 85.501 85.501" style="enable-background:new 0 0 85.501 85.501;" xml:space="preserve"><g>		<path d="M63.417,85.501h-62C0.634,85.501,0,84.866,0,84.084v-62c0-0.376,0.149-0.736,0.415-1.002L21.082,0.415   C21.348,0.149,21.708,0,22.084,0h62c0.782,0,1.417,0.634,1.417,1.417v62c0,0.376-0.149,0.736-0.415,1.002L64.419,85.086   C64.153,85.351,63.793,85.501,63.417,85.501z M2.834,82.667H62.83L82.667,62.83V2.834H22.671L2.834,22.671V82.667z"></path>		<path d="M63.417,85.501c-0.783,0-1.417-0.635-1.417-1.417v-62c0-0.782,0.634-1.417,1.417-1.417c0.783,0,1.417,0.635,1.417,1.417   v62C64.834,84.866,64.2,85.501,63.417,85.501z"></path>		<path d="M22.084,64.834c-0.783,0-1.417-0.635-1.417-1.417v-62C20.667,0.634,21.301,0,22.084,0s1.417,0.634,1.417,1.417v62   C23.501,64.199,22.867,64.834,22.084,64.834z"></path>		<path d="M63.417,23.501h-62C0.634,23.501,0,22.866,0,22.084s0.634-1.417,1.417-1.417h62c0.783,0,1.417,0.635,1.417,1.417   S64.2,23.501,63.417,23.501z"></path>		<path d="M63.417,23.501c-0.363,0-0.726-0.138-1.002-0.415c-0.554-0.554-0.554-1.45,0-2.004L83.082,0.415   c0.553-0.554,1.451-0.554,2.004,0c0.554,0.553,0.554,1.451,0,2.004L64.419,23.086C64.143,23.362,63.78,23.501,63.417,23.501z"></path>		<path d="M1.417,85.501c-0.363,0-0.726-0.139-1.002-0.415c-0.554-0.554-0.554-1.45,0-2.004l20.667-20.667   c0.553-0.553,1.451-0.553,2.004,0c0.554,0.554,0.554,1.45,0,2.004L2.419,85.086C2.143,85.362,1.78,85.501,1.417,85.501z"></path>		<path d="M84.084,64.834h-62c-0.783,0-1.417-0.635-1.417-1.417c0-0.782,0.634-1.417,1.417-1.417h62   c0.782,0,1.417,0.635,1.417,1.417C85.501,64.199,84.866,64.834,84.084,64.834z"></path></g></svg>