<svg xmlns="http://www.w3.org/2000/svg" xmlns:xlink="http://www.w3.org/1999/xlink" x="0px" y="0px" viewBox="0 0 81.039 85.156" style="enable-background:new 0 0 81.039 85.156;" xml:space="preserve"><g>		<path d="M30.228,83.097H1.411C0.632,83.097,0,82.466,0,81.686V52.87c0-0.779,0.632-1.411,1.412-1.411h28.817   c0.779,0,1.412,0.632,1.412,1.411v28.816C31.64,82.466,31.008,83.097,30.228,83.097z M2.823,80.275h25.994V54.281H2.823V80.275z"></path>		<path d="M59.045,37.814H17.878c-0.506,0-0.974-0.271-1.225-0.71s-0.248-0.98,0.008-1.417L37.245,0.696   C37.499,0.264,37.962,0,38.462,0s0.963,0.265,1.217,0.696l20.583,34.992c0.257,0.437,0.26,0.978,0.009,1.417   C60.019,37.544,59.551,37.814,59.045,37.814z M20.346,34.992h36.231L38.462,4.195L20.346,34.992z"></path>		<path d="M63.161,85.156c-9.858,0-17.878-8.02-17.878-17.878S53.303,49.4,63.161,49.4s17.878,8.02,17.878,17.878   S73.02,85.156,63.161,85.156z M63.161,52.222c-8.302,0-15.056,6.754-15.056,15.056s6.754,15.056,15.056,15.056   s15.056-6.754,15.056-15.056S71.463,52.222,63.161,52.222z"></path></g></svg>