<svg xmlns="http://www.w3.org/2000/svg" xmlns:xlink="http://www.w3.org/1999/xlink" x="0px" y="0px" viewBox="0 0 87.025 87.025" style="enable-background:new 0 0 87.025 87.025;" xml:space="preserve"><g>		<path d="M75.702,87.025H1.417C0.635,87.025,0,86.39,0,85.608V11.322c0-0.782,0.634-1.417,1.417-1.417h44.571   c0.783,0,1.417,0.635,1.417,1.417s-0.634,1.417-1.417,1.417H2.834v71.452h71.451V41.036c0-0.782,0.635-1.417,1.417-1.417   s1.417,0.635,1.417,1.417v44.571C77.119,86.39,76.485,87.025,75.702,87.025z"></path>		<path d="M75.702,22.644c-6.242,0-11.321-5.079-11.321-11.322C64.381,5.079,69.46,0,75.702,0c6.243,0,11.322,5.079,11.322,11.321   C87.025,17.565,81.946,22.644,75.702,22.644z M75.702,2.834c-4.68,0-8.487,3.808-8.487,8.487c0,4.681,3.808,8.488,8.487,8.488   c4.681,0,8.488-3.808,8.488-8.488C84.191,6.642,80.383,2.834,75.702,2.834z"></path></g></svg>