<svg xmlns="http://www.w3.org/2000/svg" xmlns:xlink="http://www.w3.org/1999/xlink" x="0px" y="0px" viewBox="0 0 130 80" style="enable-background:new 0 0 130 80;" xml:space="preserve">	<g>	<g>			<path d="M98.4,59.2c3.3-7.5,2.7-16.3-1.2-24.2c-3.8-7.9-11-14.7-19.9-19.8S58,6.8,47.1,5S24.9,2.9,13.7,3.3   c11.2-1.1,22.6-1.6,33.9-0.5s22.7,3.8,32.9,8.6c2.5,1.2,4.9,2.5,7.3,4c2.3,1.5,4.6,3.1,6.7,4.8s4,3.6,5.8,5.6   c1.7,2,3.3,4.2,4.7,6.4c1.3,2.3,2.5,4.6,3.4,7s1.6,4.9,2,7.4c0.3,2.5,0.5,5.1,0.3,7.7c-0.2,2.6-0.7,5.1-1.5,7.7L98.4,59.2z"></path>				<g>						<polygon points="118.9,60.9 97.6,77 91.3,53.8    "></polygon>		   </g>	    </g>			<path class="arrow-icon-st0" d="M113,45.3c-1-3.8-2.4-7.6-4.3-11.2c-1.9-3.6-4.2-7-7-10.2c-1.4-1.7-3-3.2-4.5-4.7c-0.8-0.8-1.7-1.5-2.5-2.2  c-0.8-0.7-1.7-1.4-2.5-2.2c1,0.5,2,1.1,3,1.7s2,1.2,2.9,1.9l2.7,2.1c0.5,0.3,0.9,0.7,1.3,1.1l1.2,1.2c1.7,1.5,3,3.3,4.4,5  c0.7,0.9,1.2,1.8,1.8,2.7l0.9,1.4l0.7,1.4c1,1.9,1.8,3.8,2.5,5.8l0.8,3c0.3,1,0.4,2,0.6,3c0.6,4,0.6,8.1-0.5,12.1  C114.4,53.2,113.8,49.2,113,45.3z"></path>	<path class="arrow-icon-st0" d="M34.1,6.4c5,0,9.9,0.6,14.8,1.4s9.6,2.2,14.1,4l3.3,1.4c1.1,0.5,2.1,1.1,3.1,1.7l1.5,0.9c0.5,0.3,0.9,0.7,1.4,1  c0.9,0.6,1.8,1.3,2.7,2c-4.3-2-8.5-4-13-5.4c-1.1-0.4-2.3-0.7-3.4-1c-1.1-0.3-2.2-0.7-3.4-0.9l-3.5-0.8L48.2,10  c-4.7-0.9-9.5-1.5-14.3-1.9c-4.8-0.3-9.7-0.6-14.6-0.6C24.1,6.5,29.1,6.3,34.1,6.4z"></path>	</g></svg>