<svg xmlns="http://www.w3.org/2000/svg" width="442" height="442" viewBox="0 0 442 442"><defs><style>      .stripe-circle {        fill: currentcolor;        fill-rule: evenodd;      }    </style></defs><path data-name="stripe-circle" class="stripe-circle" d="M429.606,158.278L283.718,12.391l2.932-2.932L432.538,155.346Zm9.46,70.407L213.312,2.93,216.244,0,442,225.753Zm-8,52.949L160.364,10.929,163.3,8,434,278.7ZM413.7,325.214L116.783,28.294l2.932-2.932,296.92,296.922Zm23.959-128.407L245.189,4.335,248.121,1.4,440.594,193.875Zm-1.166,59.78L185.409,5.5l2.932-2.932L439.428,253.655ZM423.36,304.4L137.6,18.635l2.932-2.931L426.292,301.466Zm-21.049,39.9L97.7,39.685l2.932-2.932,304.609,304.61Zm-12.984,17.489L80.212,52.67l2.932-2.932L392.259,358.851Zm-14.492,15.981-310.6-310.6,2.932-2.932,310.6,310.6Zm-15.981,14.492L49.74,83.143l2.932-2.932L361.786,389.324Zm-17.489,12.984L36.756,100.631,39.688,97.7,344.3,402.309Zm-19.081,11.393L25.364,119.712,28.3,116.78,325.216,413.7Zm-20.816,9.657L15.707,140.529l2.932-2.932L304.4,423.359ZM278.7,434L8,163.294l2.932-2.932,270.7,270.705Zm-25.045,5.428L2.571,188.339,5.5,185.408,256.59,436.494ZM225.755,442L0,216.241l2.932-2.931L228.687,439.064Zm-31.877-1.405L1.405,248.12l2.932-2.932L196.81,437.66Zm-38.53-8.055L9.461,286.648l2.932-2.932L158.28,429.605ZM402.056,100.256L341.741,39.941l2.931-2.933,60.316,60.317ZM97.326,404.986L37.01,344.67l2.932-2.931,60.316,60.316Z"></path></svg>