<svg xmlns="http://www.w3.org/2000/svg" xmlns:xlink="http://www.w3.org/1999/xlink" x="0px" y="0px" viewBox="0 0 130 80" style="enable-background:new 0 0 130 80;" xml:space="preserve"><style type="text/css">	.arrow-icon-st0{fill:currentcolor;}</style><g>	<g>		<path class="arrow-icon-st0" d="M23.4,62c-0.8-2.6-1.3-5.1-1.5-7.7c-0.2-2.6,0-5.2,0.3-7.7c0.4-2.5,1.1-5,2-7.4c0.9-2.4,2.1-4.7,3.4-7   c1.4-2.2,3-4.4,4.7-6.4c1.8-2,3.7-3.9,5.8-5.6c2.1-1.7,4.4-3.3,6.7-4.8c2.4-1.5,4.8-2.8,7.3-4C62.3,6.6,73.7,3.9,85,2.8   c11.3-1.1,22.7-0.6,33.9,0.5c-11.2-0.4-22.5-0.1-33.4,1.7c-10.9,1.8-21.3,5.1-30.2,10.2c-8.9,5.1-16.1,11.9-19.9,19.8   c-3.9,7.9-4.5,16.7-1.2,24.2L23.4,62z"></path>		<g>			<polygon class="arrow-icon-st0" points="41.3,53.8 35,77 13.7,60.9    "></polygon>		</g>	</g>	<path class="arrow-icon-st0" d="M18.1,57.2c-1.1-4-1.1-8.1-0.5-12.1c0.2-1,0.3-2,0.6-3l0.8-3c0.7-2,1.5-3.9,2.5-5.8l0.7-1.4l0.9-1.4  c0.6-0.9,1.1-1.8,1.8-2.7c1.4-1.7,2.7-3.5,4.4-5l1.2-1.2c0.4-0.4,0.8-0.8,1.3-1.1l2.7-2.1c0.9-0.7,1.9-1.3,2.9-1.9  c1-0.6,2-1.2,3-1.7c-0.8,0.8-1.7,1.5-2.5,2.2c-0.8,0.7-1.7,1.4-2.5,2.2c-1.5,1.5-3.1,3-4.5,4.7c-2.8,3.2-5.1,6.6-7,10.2  c-1.9,3.6-3.3,7.4-4.3,11.2C18.8,49.2,18.2,53.2,18.1,57.2z"></path>	<path class="arrow-icon-st0" d="M113.3,7.5c-4.9,0-9.8,0.3-14.6,0.6c-4.8,0.4-9.6,1-14.3,1.9l-3.5,0.7l-3.5,0.8c-1.2,0.2-2.3,0.6-3.4,0.9  c-1.1,0.3-2.3,0.6-3.4,1c-4.5,1.4-8.7,3.4-13,5.4c0.9-0.7,1.8-1.4,2.7-2c0.5-0.3,0.9-0.7,1.4-1l1.5-0.9c1-0.6,2-1.2,3.1-1.7  l3.3-1.4c4.5-1.8,9.2-3.2,14.1-4c4.9-0.8,9.8-1.4,14.8-1.4C103.5,6.3,108.5,6.5,113.3,7.5z"></path></g></svg>