<svg xmlns="http://www.w3.org/2000/svg" xmlns:xlink="http://www.w3.org/1999/xlink" width="30px" height="30px"><path fill-rule="evenodd" d="M1.323,0.005 C1.659,0.005 1.995,0.133 2.252,0.390 L27.375,25.512 L27.375,1.319 C27.375,0.593 27.963,0.005 28.688,0.005 C29.414,0.005 30.002,0.593 30.002,1.319 L30.002,28.682 C30.002,28.686 30.002,28.691 30.002,28.696 L30.002,28.697 C30.002,28.698 30.002,28.698 30.002,28.699 L30.002,28.699 C30.000,28.872 29.965,29.036 29.903,29.185 C29.839,29.339 29.745,29.483 29.621,29.609 C29.621,29.609 29.620,29.609 29.620,29.610 C29.619,29.610 29.619,29.611 29.619,29.611 C29.618,29.612 29.618,29.613 29.617,29.613 C29.617,29.613 29.616,29.613 29.616,29.614 C29.615,29.614 29.616,29.614 29.614,29.615 C29.614,29.615 29.614,29.616 29.613,29.617 C29.613,29.617 29.613,29.617 29.613,29.617 C29.488,29.741 29.343,29.835 29.190,29.899 C29.040,29.960 28.876,29.995 28.704,29.997 C28.704,29.997 28.704,29.997 28.703,29.997 C28.702,29.997 28.702,29.997 28.701,29.997 C28.700,29.997 28.693,29.997 28.688,29.997 C28.688,29.997 28.688,29.997 28.687,29.997 L1.323,29.997 C0.598,29.997 0.009,29.409 0.009,28.684 C0.009,27.958 0.598,27.370 1.323,27.370 L25.517,27.370 L0.394,2.248 C-0.119,1.735 -0.119,0.903 0.394,0.390 C0.651,0.133 0.987,0.005 1.323,0.005 Z"></path></svg>