<svg xmlns="http://www.w3.org/2000/svg" xmlns:xlink="http://www.w3.org/1999/xlink" width="30px" height="30px"><path fill-rule="evenodd" d="M28.677,29.995 C28.341,29.995 28.005,29.867 27.748,29.610 L2.625,4.488 L2.625,28.681 C2.625,29.407 2.037,29.995 1.312,29.995 C0.586,29.995 -0.002,29.407 -0.002,28.681 L-0.002,1.318 C-0.002,1.314 -0.002,1.309 -0.002,1.304 L-0.002,1.303 C-0.002,1.302 -0.002,1.302 -0.002,1.301 L-0.002,1.301 C0.000,1.128 0.035,0.964 0.097,0.815 C0.161,0.661 0.255,0.517 0.379,0.391 C0.379,0.391 0.380,0.391 0.380,0.390 C0.381,0.390 0.381,0.389 0.381,0.389 C0.382,0.388 0.382,0.387 0.383,0.387 C0.383,0.387 0.384,0.387 0.384,0.386 C0.385,0.386 0.384,0.386 0.386,0.385 C0.386,0.385 0.386,0.384 0.387,0.383 C0.387,0.383 0.387,0.383 0.387,0.383 C0.512,0.259 0.657,0.165 0.810,0.101 C0.960,0.040 1.124,0.005 1.296,0.003 C1.296,0.003 1.296,0.003 1.297,0.003 C1.298,0.003 1.298,0.003 1.299,0.003 C1.300,0.003 1.307,0.003 1.312,0.003 C1.312,0.003 1.312,0.003 1.313,0.003 L28.677,0.003 C29.402,0.003 29.991,0.591 29.991,1.316 C29.991,2.042 29.402,2.630 28.677,2.630 L4.483,2.630 L29.606,27.752 C30.119,28.265 30.119,29.097 29.606,29.610 C29.349,29.867 29.013,29.995 28.677,29.995 Z"></path></svg>