<svg xmlns="http://www.w3.org/2000/svg" xmlns:xlink="http://www.w3.org/1999/xlink" x="0px" y="0px" viewBox="0 0 76 89" style="enable-background:new 0 0 76 89;" xml:space="preserve"><style type="text/css">	.icon-2-st0{fill:currentcolor;}</style><path class="icon-2-st0" d="M38,19.3c-5.1,0-9.1-4.2-9.1-9.2S33.1,1,38.1,1c5,0,9.1,4.1,9.1,9.2C47.2,15.2,43.1,19.3,38,19.3z M38,3.6 c-3.6,0-6.5,3-6.5,6.6c0,3.6,3,6.5,6.6,6.5c3.6,0,6.5-2.9,6.5-6.5C44.5,6.5,41.6,3.6,38,3.6L38,3.6z M38,50.7 c-5.1,0-9.1-4.2-9.1-9.2s4.2-9.1,9.2-9.1c5,0,9.1,4.1,9.1,9.2C47.2,46.6,43.1,50.7,38,50.7z M38,35c-3.6,0-6.5,3-6.5,6.6 c0,3.6,3,6.5,6.6,6.5c3.6,0,6.5-2.9,6.5-6.5C44.5,37.9,41.6,35,38,35z M65.4,35c-0.8,0-1.6-0.1-2.4-0.3c-2.4-0.6-4.4-2.2-5.6-4.3 l0,0c-2.5-4.4-1.1-9.9,3.3-12.5c0,0,0.1,0,0.1,0c4.4-2.5,10-1,12.6,3.4c2.5,4.4,1,9.9-3.3,12.5c0,0,0,0-0.1,0 C68.6,34.6,67,35,65.4,35L65.4,35z M65.3,19.3c-1.1,0-2.3,0.3-3.3,0.9c-3.1,1.8-4.2,5.7-2.4,8.8c0,0,0,0,0,0.1l0,0 c1.8,3.2,5.8,4.3,8.9,2.5c3.2-1.8,4.3-5.8,2.5-8.9C69.9,20.6,67.7,19.3,65.3,19.3z M65.3,66.3c-1.6,0-3.2-0.4-4.6-1.2 c-4.4-2.5-5.9-8-3.4-12.4c0,0,0-0.1,0-0.1l0,0c2.5-4.4,8.1-6,12.5-3.5c4.4,2.5,6,8.1,3.5,12.5c-1.2,2.2-3.3,3.8-5.7,4.4 C67,66.2,66.2,66.3,65.3,66.3L65.3,66.3z M65.4,50.7c-0.6,0-1.2,0.1-1.7,0.2c-1.7,0.4-3.1,1.5-4,3l0,0C57.9,57,58.9,61,62,62.8 c0,0,0,0,0,0c3.1,1.8,7.1,0.7,9-2.4c1.8-3.1,0.7-7.1-2.4-8.9c0,0,0,0,0,0C67.6,51,66.5,50.7,65.4,50.7L65.4,50.7z M58.5,53.3 M38,82 c-5.1,0-9.1-4.2-9.1-9.2c0-5.1,4.2-9.1,9.2-9.1c5,0,9.1,4.1,9.1,9.2C47.2,77.9,43.1,82,38,82z M38,66.3c-3.6,0-6.5,3-6.5,6.6 c0,3.6,3,6.5,6.6,6.5c3.6,0,6.5-2.9,6.5-6.5C44.5,69.2,41.6,66.3,38,66.3L38,66.3z M10.6,66.3c-0.8,0-1.6-0.1-2.4-0.3 c-4.9-1.4-7.7-6.4-6.4-11.3c1.4-4.9,6.4-7.7,11.3-6.4c2.3,0.6,4.3,2.2,5.5,4.2c2.5,4.4,1.1,9.9-3.3,12.5c0,0-0.1,0-0.1,0 C13.8,65.9,12.2,66.3,10.6,66.3L10.6,66.3z M10.6,50.7c-1.2,0-2.3,0.3-3.3,0.9c-3.1,1.8-4.2,5.8-2.4,8.9c0.9,1.5,2.3,2.6,4,3.1 c1.7,0.5,3.5,0.2,5-0.7c3.1-1.8,4.2-5.7,2.4-8.9c0,0,0,0,0,0l0,0c-0.9-1.5-2.3-2.6-4-3C11.8,50.7,11.2,50.7,10.6,50.7z M10.6,35 C9,35,7.4,34.6,6,33.8c-4.4-2.5-5.9-8.1-3.4-12.4c0,0,0,0,0-0.1c2.6-4.4,8.2-5.9,12.6-3.4c4.4,2.5,5.9,8.1,3.4,12.5 c-1.2,2.1-3.3,3.7-5.6,4.3C12.2,34.9,11.4,35,10.6,35L10.6,35z M10.6,19.3c-2.3,0-4.5,1.2-5.7,3.3c-1.8,3.1-0.7,7.1,2.4,8.9 c0,0,0,0,0,0c3.1,1.8,7.1,0.7,9-2.4l0,0c1.8-3.1,0.7-7.1-2.4-8.9c0,0,0,0-0.1,0C12.9,19.6,11.8,19.3,10.6,19.3L10.6,19.3z"></path></svg>