<svg xmlns="http://www.w3.org/2000/svg" xmlns:xlink="http://www.w3.org/1999/xlink" x="0px" y="0px" viewBox="0 0 76 89" style="enable-background:new 0 0 76 89;" xml:space="preserve"><style type="text/css">	.icon-3-st0{fill:currentcolor;}</style><path class="icon-3-st0" d="M38,78.1c-0.2,0-0.5-0.1-0.6-0.2L5.6,59.3C5.2,59.1,5,58.6,5,58.2V20.8c0-0.5,0.2-0.9,0.6-1.1l15.9-9.3l0,0 L37.4,1c0.4-0.2,0.9-0.2,1.3,0l31.7,18.7c0.4,0.2,0.6,0.6,0.6,1.1v37.4c0,0.5-0.2,0.9-0.6,1.1L38.6,78C38.5,78.1,38.2,78.1,38,78.1z  M7.6,57.4L38,75.4l30.4-17.9V21.5L38,3.6L7.6,21.5V57.4z M38,40.8c-0.7,0-1.3-0.6-1.3-1.3c0-0.5,0.2-0.9,0.6-1.1l31.7-18.7 c0.6-0.3,1.4-0.1,1.7,0.5c0.3,0.6,0.1,1.4-0.4,1.7L38.6,40.6C38.5,40.7,38.2,40.8,38,40.8z M38,40.8c-0.2,0-0.5-0.1-0.6-0.2 L5.6,21.9c-0.6-0.4-0.8-1.1-0.5-1.8c0.4-0.6,1.1-0.8,1.8-0.5l31.7,18.7c0.6,0.4,0.8,1.1,0.5,1.8C38.9,40.5,38.5,40.8,38,40.8z  M38,78.1c-0.7,0-1.3-0.6-1.3-1.3c0,0,0,0,0,0V39.5c0-0.7,0.6-1.3,1.3-1.3c0.7,0,1.3,0.6,1.3,1.3v37.4C39.3,77.6,38.7,78.1,38,78.1 C38,78.1,38,78.1,38,78.1z M52.9,68.8c-0.7,0-1.3-0.6-1.3-1.3V30.2c0-0.7,0.6-1.3,1.3-1.3c0.7,0,1.3,0.6,1.3,1.3v37.4 C54.2,68.2,53.6,68.8,52.9,68.8C52.9,68.8,52.9,68.8,52.9,68.8z M38,59.5c-0.7,0-1.3-0.6-1.3-1.3c0-0.5,0.2-0.9,0.6-1.1l31.7-18.7 c0.6-0.3,1.4-0.1,1.7,0.5c0.3,0.6,0.1,1.4-0.4,1.7L38.6,59.3C38.5,59.4,38.2,59.5,38,59.5z M38,59.5c-0.2,0-0.5-0.1-0.6-0.2 L5.6,40.6c-0.6-0.4-0.8-1.2-0.4-1.8c0.4-0.6,1.1-0.8,1.7-0.4l31.7,18.7c0.6,0.4,0.8,1.1,0.5,1.8C38.9,59.2,38.5,59.5,38,59.5z  M23.1,68.8c-0.7,0-1.3-0.6-1.3-1.3V30.2c0-0.7,0.6-1.3,1.3-1.3s1.3,0.6,1.3,1.3v37.4C24.4,68.2,23.8,68.8,23.1,68.8 C23.1,68.8,23.1,68.8,23.1,68.8z M23.1,31.4c-0.7,0-1.3-0.6-1.3-1.3c0-0.4,0.2-0.9,0.6-1.1l29.9-18.7c0.6-0.4,1.4-0.1,1.7,0.5 c0.3,0.6,0.2,1.3-0.4,1.7L23.8,31.2C23.5,31.4,23.3,31.4,23.1,31.4L23.1,31.4z M52.9,31.4c-0.2,0-0.5-0.1-0.7-0.2L22.4,12.6 c-0.6-0.4-0.7-1.2-0.3-1.8c0.4-0.6,1.1-0.7,1.7-0.4l29.9,18.7c0.6,0.4,0.8,1.2,0.4,1.8C53.8,31.2,53.4,31.4,52.9,31.4L52.9,31.4z"></path></svg>