<svg xmlns="http://www.w3.org/2000/svg" xmlns:xlink="http://www.w3.org/1999/xlink" x="0px" y="0px" viewBox="0 0 100 100" style="enable-background:new 0 0 100 100;" xml:space="preserve"><style type="text/css">	.icon-5-st0{fill:currentcolor;}</style><path class="icon-5-st0" d="M92.5,46.7H6.3c-0.8,0-1.5-0.7-1.5-1.5c0-24.8,20-45,44.6-45C74,0.2,94,20.4,94,45.2C94,46,93.3,46.7,92.5,46.7 L92.5,46.7z M49.4,3.2C27,3.2,8.6,21.2,7.8,43.7H91C90.2,21.2,71.9,3.2,49.4,3.2L49.4,3.2z M49.4,83.6c-12.7,0-23-10.4-23-23.2 c0-0.8,0.7-1.5,1.5-1.5H71c0.8,0,1.5,0.7,1.5,1.5C72.4,73.2,62.1,83.6,49.4,83.6L49.4,83.6z M29.4,61.9c0.8,10.5,9.4,18.8,20,18.8 c10.6,0,19.3-8.3,20-18.8H29.4L29.4,61.9z"></path></svg>