<svg xmlns="http://www.w3.org/2000/svg" xmlns:xlink="http://www.w3.org/1999/xlink" x="0px" y="0px" viewBox="0 0 76 89" style="enable-background:new 0 0 76 89;" xml:space="preserve"><style type="text/css">	.icon-4-st0{fill:currentcolor;}</style><path class="icon-4-st0" d="M2.9,14.4c-0.7,0-1.3-0.6-1.3-1.3c0-0.4,0.1-0.7,0.4-1L13.6,0.4c0.5-0.5,1.4-0.5,1.9,0C16,1,16,1.8,15.5,2.3 L3.8,14C3.6,14.3,3.2,14.4,2.9,14.4z M61.4,73c-0.7,0-1.3-0.6-1.3-1.3c0-0.4,0.1-0.7,0.4-0.9L72.2,59c0.5-0.5,1.4-0.5,1.9,0 c0.5,0.5,0.5,1.3,0,1.9L62.4,72.6C62.1,72.9,61.8,73,61.4,73z M2.9,33.9c-0.7,0-1.3-0.6-1.3-1.3c0-0.4,0.1-0.7,0.4-0.9L33.2,0.4 c0.5-0.5,1.4-0.5,1.9,0c0.5,0.5,0.5,1.3,0,1.9L3.8,33.5C3.6,33.8,3.2,33.9,2.9,33.9z M2.9,53.5c-0.7,0-1.3-0.6-1.3-1.3 c0-0.4,0.1-0.7,0.4-0.9L52.7,0.4c0.5-0.5,1.4-0.5,1.9,0c0.5,0.5,0.5,1.4,0,1.9c0,0,0,0,0,0L3.8,53.1C3.6,53.3,3.2,53.5,2.9,53.5z  M2.9,73c-0.7,0-1.3-0.6-1.3-1.3c0-0.4,0.1-0.7,0.4-0.9L72.2,0.4c0.5-0.5,1.4-0.5,1.9,0c0.5,0.5,0.5,1.3,0,1.9L3.8,72.6 C3.6,72.9,3.2,73,2.9,73L2.9,73z M22.4,73c-0.7,0-1.3-0.6-1.3-1.3c0-0.4,0.1-0.7,0.4-0.9l50.8-50.8c0.5-0.5,1.4-0.5,1.9,0 c0.5,0.5,0.5,1.3,0,1.9L23.3,72.6C23.1,72.9,22.7,73,22.4,73L22.4,73z M41.9,73c-0.7,0-1.3-0.6-1.3-1.3c0-0.4,0.1-0.7,0.4-0.9 l31.2-31.2c0.5-0.5,1.4-0.5,1.9,0c0.5,0.5,0.5,1.3,0,1.9L42.9,72.6C42.6,72.9,42.3,73,41.9,73L41.9,73z"></path></svg>