<svg xmlns="http://www.w3.org/2000/svg" xmlns:xlink="http://www.w3.org/1999/xlink" x="0px" y="0px" viewBox="0 0 76 89" style="enable-background:new 0 0 76 89;" xml:space="preserve"><style type="text/css">	.icon-1-st0{fill:currentcolor;}</style><path class="icon-1-st0" d="M30.2,31H2.8c-0.7,0-1.3-0.6-1.3-1.3V2.3C1.5,1.6,2.1,1,2.8,1h27.4c0.7,0,1.3,0.6,1.3,1.3l0,0v27.4 C31.5,30.4,30.9,31,30.2,31C30.2,31,30.2,31,30.2,31z M4.1,28.4h24.7V3.6H4.1V28.4z M30.2,74H2.8c-0.7,0-1.3-0.6-1.3-1.3 c0,0,0,0,0,0V45.3c0-0.7,0.6-1.3,1.3-1.3h27.4c0.7,0,1.3,0.6,1.3,1.3v27.4C31.5,73.4,30.9,74,30.2,74C30.2,74,30.2,74,30.2,74z  M4.1,71.4h24.7V46.6H4.1V71.4z M73.2,31H45.8c-0.7,0-1.3-0.6-1.3-1.3l0,0V2.3c0-0.7,0.6-1.3,1.3-1.3h27.4c0.7,0,1.3,0.6,1.3,1.3 v27.4C74.5,30.4,73.9,31,73.2,31z M47.1,28.4h24.7V3.6H47.1V28.4z M73.2,74c-0.3,0-0.7-0.1-0.9-0.4L47.1,48.5v24.2 c0,0.7-0.6,1.3-1.3,1.3s-1.3-0.6-1.3-1.3V45.3l0,0l0,0c0-0.3,0.1-0.7,0.4-0.9l0,0l0,0l0,0l0,0l0,0l0,0l0,0c0.2-0.2,0.6-0.4,0.9-0.4 l0,0c0,0,0,0,0,0h27.4c0.7,0,1.3,0.6,1.3,1.3c0,0.7-0.6,1.3-1.3,1.3H49l25.1,25.1c0.5,0.5,0.5,1.3,0,1.9C73.9,73.9,73.5,74,73.2,74z "></path></svg>