<svg xmlns="http://www.w3.org/2000/svg" xmlns:xlink="http://www.w3.org/1999/xlink" x="0px" y="0px" viewBox="0 0 100 100" style="enable-background:new 0 0 100 100;" xml:space="preserve"><style type="text/css">	.icon-6-st0{fill:currentcolor;}</style><g>	<path class="icon-6-st0" d="M50,74.7H10.5C9.7,74.7,9,74,9,73.1V2.3c0-0.8,0.7-1.5,1.5-1.5H50c0.8,0,1.5,0.7,1.5,1.5v70.8  C51.5,74,50.8,74.7,50,74.7L50,74.7z M48.5,3.8H12v67.8h36.5V3.8L48.5,3.8z M89.5,87.9H50c-0.8,0-1.5-0.7-1.5-1.5V15.6  c0-0.8,0.7-1.5,1.5-1.5h39.5c0.8,0,1.5,0.7,1.5,1.5v70.8C91,87.3,90.3,87.9,89.5,87.9L89.5,87.9z M88,17.1H51.5v67.8H88V17.1  L88,17.1z M35.8,38.3l-8,9.3c-0.3,0.3-0.7,0.5-1.1,0.5c-0.4,0-0.7-0.1-1-0.4c-0.6-0.6-0.7-1.5-0.1-2.1l7.1-8.2L24.8,30  c-0.6-0.6-0.6-1.5-0.1-2.1c0.6-0.6,1.5-0.6,2.1-0.1l8.8,8.4C36.3,36.7,36.3,37.7,35.8,38.3L35.8,38.3z M75.3,51.5l-8,9.3  c-0.3,0.3-0.7,0.5-1.1,0.5c-0.4,0-0.7-0.1-1-0.4c-0.6-0.6-0.7-1.5-0.1-2.1l7.1-8.2l-7.7-7.4c-0.6-0.6-0.6-1.5-0.1-2.1  c0.6-0.6,1.5-0.6,2.1-0.1l8.8,8.4C75.8,50,75.8,50.9,75.3,51.5L75.3,51.5z"></path></g></svg>