<svg xmlns="http://www.w3.org/2000/svg" xmlns:xlink="http://www.w3.org/1999/xlink" x="0px" y="0px"
	 viewBox="0 0 76 89" style="enable-background:new 0 0 76 89;" xml:space="preserve">
<path d="M30.2,39H2.8c-0.7,0-1.3-0.6-1.3-1.3V10.3C1.5,9.6,2.1,9,2.8,9h27.4c0.7,0,1.3,0.6,1.3,1.3l0,0v27.4
	C31.5,38.4,30.9,39,30.2,39L30.2,39z M4.1,36.4h24.7V11.6H4.1V36.4z M30.2,82H2.8c-0.7,0-1.3-0.6-1.3-1.3l0,0V53.3
	c0-0.7,0.6-1.3,1.3-1.3h27.4c0.7,0,1.3,0.6,1.3,1.3v27.4C31.5,81.4,30.9,82,30.2,82L30.2,82z M4.1,79.4h24.7V54.6H4.1V79.4z
	 M73.2,39H45.8c-0.7,0-1.3-0.6-1.3-1.3l0,0V10.3c0-0.7,0.6-1.3,1.3-1.3h27.4c0.7,0,1.3,0.6,1.3,1.3v27.4C74.5,38.4,73.9,39,73.2,39z
	 M47.1,36.4h24.7V11.6H47.1V36.4z M73.2,82c-0.3,0-0.7-0.1-0.9-0.4L47.1,56.5v24.2c0,0.7-0.6,1.3-1.3,1.3s-1.3-0.6-1.3-1.3V53.3l0,0
	l0,0c0-0.3,0.1-0.7,0.4-0.9l0,0l0,0l0,0l0,0l0,0l0,0l0,0c0.2-0.2,0.6-0.4,0.9-0.4l0,0l0,0h27.4c0.7,0,1.3,0.6,1.3,1.3
	s-0.6,1.3-1.3,1.3H49l25.1,25.1c0.5,0.5,0.5,1.3,0,1.9C73.9,81.9,73.5,82,73.2,82z"/>
</svg>
