<svg xmlns="http://www.w3.org/2000/svg" xmlns:xlink="http://www.w3.org/1999/xlink" x="0px" y="0px"
	 viewBox="0 0 76 89" style="enable-background:new 0 0 76 89;" xml:space="preserve">
<path d="M2.9,22.4c-0.7,0-1.3-0.6-1.3-1.3c0-0.4,0.1-0.7,0.4-1L13.6,8.4c0.5-0.5,1.4-0.5,1.9,0c0.5,0.6,0.5,1.4,0,1.9L3.8,22
	C3.6,22.3,3.2,22.4,2.9,22.4z M61.4,81c-0.7,0-1.3-0.6-1.3-1.3c0-0.4,0.1-0.7,0.4-0.9L72.2,67c0.5-0.5,1.4-0.5,1.9,0s0.5,1.3,0,1.9
	L62.4,80.6C62.1,80.9,61.8,81,61.4,81z M2.9,41.9c-0.7,0-1.3-0.6-1.3-1.3c0-0.4,0.1-0.7,0.4-0.9L33.2,8.4c0.5-0.5,1.4-0.5,1.9,0
	s0.5,1.3,0,1.9L3.8,41.5C3.6,41.8,3.2,41.9,2.9,41.9z M2.9,61.5c-0.7,0-1.3-0.6-1.3-1.3c0-0.4,0.1-0.7,0.4-0.9L52.7,8.4
	c0.5-0.5,1.4-0.5,1.9,0s0.5,1.4,0,1.9l0,0L3.8,61.1C3.6,61.3,3.2,61.5,2.9,61.5z M2.9,81c-0.7,0-1.3-0.6-1.3-1.3
	c0-0.4,0.1-0.7,0.4-0.9L72.2,8.4c0.5-0.5,1.4-0.5,1.9,0s0.5,1.3,0,1.9L3.8,80.6C3.6,80.9,3.2,81,2.9,81L2.9,81z M22.4,81
	c-0.7,0-1.3-0.6-1.3-1.3c0-0.4,0.1-0.7,0.4-0.9L72.3,28c0.5-0.5,1.4-0.5,1.9,0s0.5,1.3,0,1.9L23.3,80.6C23.1,80.9,22.7,81,22.4,81
	L22.4,81z M41.9,81c-0.7,0-1.3-0.6-1.3-1.3c0-0.4,0.1-0.7,0.4-0.9l31.2-31.2c0.5-0.5,1.4-0.5,1.9,0s0.5,1.3,0,1.9L42.9,80.6
	C42.6,80.9,42.3,81,41.9,81L41.9,81z"/>
</svg>
