<svg xmlns="http://www.w3.org/2000/svg" xmlns:xlink="http://www.w3.org/1999/xlink" x="0px" y="0px"
	 viewBox="0 0 100 100" style="enable-background:new 0 0 100 100;" xml:space="preserve">
<path d="M92.5,55.7H6.3c-0.8,0-1.5-0.7-1.5-1.5c0-24.8,20-45,44.6-45C74,9.2,94,29.4,94,54.2C94,55,93.3,55.7,92.5,55.7L92.5,55.7z
	 M49.4,12.2c-22.4,0-40.8,18-41.6,40.5H91C90.2,30.2,71.9,12.2,49.4,12.2L49.4,12.2z M49.4,92.6c-12.7,0-23-10.4-23-23.2
	c0-0.8,0.7-1.5,1.5-1.5H71c0.8,0,1.5,0.7,1.5,1.5C72.4,82.2,62.1,92.6,49.4,92.6L49.4,92.6z M29.4,70.9c0.8,10.5,9.4,18.8,20,18.8
	s19.3-8.3,20-18.8L29.4,70.9L29.4,70.9z"/>
</svg>
