<svg xmlns="http://www.w3.org/2000/svg" xmlns:xlink="http://www.w3.org/1999/xlink" x="0px" y="0px"
	 viewBox="0 0 76 89" style="enable-background:new 0 0 76 89;" xml:space="preserve">
<path d="M38,83.1c-0.2,0-0.5-0.1-0.6-0.2L5.6,64.3C5.2,64.1,5,63.6,5,63.2V25.8c0-0.5,0.2-0.9,0.6-1.1l15.9-9.3l0,0L37.4,6
	c0.4-0.2,0.9-0.2,1.3,0l31.7,18.7c0.4,0.2,0.6,0.6,0.6,1.1v37.4c0,0.5-0.2,0.9-0.6,1.1L38.6,83C38.5,83.1,38.2,83.1,38,83.1z
	 M7.6,62.4l30.4,18l30.4-17.9v-36L38,8.6L7.6,26.5V62.4z M38,45.8c-0.7,0-1.3-0.6-1.3-1.3c0-0.5,0.2-0.9,0.6-1.1L69,24.7
	c0.6-0.3,1.4-0.1,1.7,0.5c0.3,0.6,0.1,1.4-0.4,1.7L38.6,45.6C38.5,45.7,38.2,45.8,38,45.8z M38,45.8c-0.2,0-0.5-0.1-0.6-0.2
	L5.6,26.9c-0.6-0.4-0.8-1.1-0.5-1.8c0.4-0.6,1.1-0.8,1.8-0.5l31.7,18.7c0.6,0.4,0.8,1.1,0.5,1.8C38.9,45.5,38.5,45.8,38,45.8z
	 M38,83.1c-0.7,0-1.3-0.6-1.3-1.3l0,0V44.5c0-0.7,0.6-1.3,1.3-1.3s1.3,0.6,1.3,1.3v37.4C39.3,82.6,38.7,83.1,38,83.1L38,83.1z
	 M52.9,73.8c-0.7,0-1.3-0.6-1.3-1.3V35.2c0-0.7,0.6-1.3,1.3-1.3s1.3,0.6,1.3,1.3v37.4C54.2,73.2,53.6,73.8,52.9,73.8L52.9,73.8z
	 M38,64.5c-0.7,0-1.3-0.6-1.3-1.3c0-0.5,0.2-0.9,0.6-1.1L69,43.4c0.6-0.3,1.4-0.1,1.7,0.5c0.3,0.6,0.1,1.4-0.4,1.7L38.6,64.3
	C38.5,64.4,38.2,64.5,38,64.5z M38,64.5c-0.2,0-0.5-0.1-0.6-0.2L5.6,45.6c-0.6-0.4-0.8-1.2-0.4-1.8s1.1-0.8,1.7-0.4l31.7,18.7
	c0.6,0.4,0.8,1.1,0.5,1.8C38.9,64.2,38.5,64.5,38,64.5z M23.1,73.8c-0.7,0-1.3-0.6-1.3-1.3V35.2c0-0.7,0.6-1.3,1.3-1.3
	s1.3,0.6,1.3,1.3v37.4C24.4,73.2,23.8,73.8,23.1,73.8L23.1,73.8z M23.1,36.4c-0.7,0-1.3-0.6-1.3-1.3c0-0.4,0.2-0.9,0.6-1.1
	l29.9-18.7c0.6-0.4,1.4-0.1,1.7,0.5s0.2,1.3-0.4,1.7L23.8,36.2C23.5,36.4,23.3,36.4,23.1,36.4L23.1,36.4z M52.9,36.4
	c-0.2,0-0.5-0.1-0.7-0.2L22.4,17.6c-0.6-0.4-0.7-1.2-0.3-1.8c0.4-0.6,1.1-0.7,1.7-0.4l29.9,18.7c0.6,0.4,0.8,1.2,0.4,1.8
	C53.8,36.2,53.4,36.4,52.9,36.4L52.9,36.4z"/>
</svg>
