<svg xmlns="http://www.w3.org/2000/svg" xmlns:xlink="http://www.w3.org/1999/xlink" x="0px" y="0px"
	 viewBox="0 0 100 100" style="enable-background:new 0 0 100 100;" xml:space="preserve">
<g>
	<path d="M50,80.7H10.5C9.7,80.7,9,80,9,79.1V8.3c0-0.8,0.7-1.5,1.5-1.5H50c0.8,0,1.5,0.7,1.5,1.5v70.8C51.5,80,50.8,80.7,50,80.7
		L50,80.7z M48.5,9.8H12v67.8h36.5V9.8L48.5,9.8z M89.5,93.9H50c-0.8,0-1.5-0.7-1.5-1.5V21.6c0-0.8,0.7-1.5,1.5-1.5h39.5
		c0.8,0,1.5,0.7,1.5,1.5v70.8C91,93.3,90.3,93.9,89.5,93.9L89.5,93.9z M88,23.1H51.5v67.8H88V23.1L88,23.1z M35.8,44.3l-8,9.3
		c-0.3,0.3-0.7,0.5-1.1,0.5s-0.7-0.1-1-0.4c-0.6-0.6-0.7-1.5-0.1-2.1l7.1-8.2L24.8,36c-0.6-0.6-0.6-1.5-0.1-2.1
		c0.6-0.6,1.5-0.6,2.1-0.1l8.8,8.4C36.3,42.7,36.3,43.7,35.8,44.3L35.8,44.3z M75.3,57.5l-8,9.3c-0.3,0.3-0.7,0.5-1.1,0.5
		s-0.7-0.1-1-0.4c-0.6-0.6-0.7-1.5-0.1-2.1l7.1-8.2l-7.7-7.4c-0.6-0.6-0.6-1.5-0.1-2.1c0.6-0.6,1.5-0.6,2.1-0.1l8.8,8.4
		C75.8,56,75.8,56.9,75.3,57.5L75.3,57.5z"/>
</g>
</svg>
