<svg xmlns="http://www.w3.org/2000/svg" xmlns:xlink="http://www.w3.org/1999/xlink" x="0px" y="0px"
	 viewBox="0 0 76 89" style="enable-background:new 0 0 76 89;" xml:space="preserve">
<path d="M38,22.3c-5.1,0-9.1-4.2-9.1-9.2S33.1,4,38.1,4s9.1,4.1,9.1,9.2C47.2,18.2,43.1,22.3,38,22.3z M38,6.6c-3.6,0-6.5,3-6.5,6.6
	s3,6.5,6.6,6.5s6.5-2.9,6.5-6.5C44.5,9.5,41.6,6.6,38,6.6L38,6.6z M38,53.7c-5.1,0-9.1-4.2-9.1-9.2s4.2-9.1,9.2-9.1s9.1,4.1,9.1,9.2
	C47.2,49.6,43.1,53.7,38,53.7z M38,38c-3.6,0-6.5,3-6.5,6.6s3,6.5,6.6,6.5s6.5-2.9,6.5-6.5C44.5,40.9,41.6,38,38,38z M65.4,38
	c-0.8,0-1.6-0.1-2.4-0.3c-2.4-0.6-4.4-2.2-5.6-4.3l0,0c-2.5-4.4-1.1-9.9,3.3-12.5h0.1c4.4-2.5,10-1,12.6,3.4c2.5,4.4,1,9.9-3.3,12.5
	c0,0,0,0-0.1,0C68.6,37.6,67,38,65.4,38L65.4,38z M65.3,22.3c-1.1,0-2.3,0.3-3.3,0.9c-3.1,1.8-4.2,5.7-2.4,8.8c0,0,0,0,0,0.1l0,0
	c1.8,3.2,5.8,4.3,8.9,2.5c3.2-1.8,4.3-5.8,2.5-8.9C69.9,23.6,67.7,22.3,65.3,22.3z M65.3,69.3c-1.6,0-3.2-0.4-4.6-1.2
	c-4.4-2.5-5.9-8-3.4-12.4v-0.1l0,0c2.5-4.4,8.1-6,12.5-3.5s6,8.1,3.5,12.5c-1.2,2.2-3.3,3.8-5.7,4.4C67,69.2,66.2,69.3,65.3,69.3
	L65.3,69.3z M65.4,53.7c-0.6,0-1.2,0.1-1.7,0.2c-1.7,0.4-3.1,1.5-4,3l0,0C57.9,60,58.9,64,62,65.8l0,0c3.1,1.8,7.1,0.7,9-2.4
	c1.8-3.1,0.7-7.1-2.4-8.9l0,0C67.6,54,66.5,53.7,65.4,53.7L65.4,53.7z M38,85c-5.1,0-9.1-4.2-9.1-9.2c0-5.1,4.2-9.1,9.2-9.1
	s9.1,4.1,9.1,9.2C47.2,80.9,43.1,85,38,85z M38,69.3c-3.6,0-6.5,3-6.5,6.6s3,6.5,6.6,6.5s6.5-2.9,6.5-6.5
	C44.5,72.2,41.6,69.3,38,69.3L38,69.3z M10.6,69.3c-0.8,0-1.6-0.1-2.4-0.3c-4.9-1.4-7.7-6.4-6.4-11.3c1.4-4.9,6.4-7.7,11.3-6.4
	c2.3,0.6,4.3,2.2,5.5,4.2c2.5,4.4,1.1,9.9-3.3,12.5h-0.1C13.8,68.9,12.2,69.3,10.6,69.3L10.6,69.3z M10.6,53.7
	c-1.2,0-2.3,0.3-3.3,0.9c-3.1,1.8-4.2,5.8-2.4,8.9c0.9,1.5,2.3,2.6,4,3.1s3.5,0.2,5-0.7c3.1-1.8,4.2-5.7,2.4-8.9l0,0l0,0
	c-0.9-1.5-2.3-2.6-4-3C11.8,53.7,11.2,53.7,10.6,53.7z M10.6,38C9,38,7.4,37.6,6,36.8c-4.4-2.5-5.9-8.1-3.4-12.4c0,0,0,0,0-0.1
	c2.6-4.4,8.2-5.9,12.6-3.4s5.9,8.1,3.4,12.5c-1.2,2.1-3.3,3.7-5.6,4.3C12.2,37.9,11.4,38,10.6,38L10.6,38z M10.6,22.3
	c-2.3,0-4.5,1.2-5.7,3.3c-1.8,3.1-0.7,7.1,2.4,8.9l0,0c3.1,1.8,7.1,0.7,9-2.4l0,0c1.8-3.1,0.7-7.1-2.4-8.9c0,0,0,0-0.1,0
	C12.9,22.6,11.8,22.3,10.6,22.3L10.6,22.3z"/>
</svg>
