<svg xmlns="http://www.w3.org/2000/svg" xmlns:xlink="http://www.w3.org/1999/xlink" id="Layer_1" x="0px" y="0px" viewBox="0 0 700 700" style="enable-background:new 0 0 700 700;" xml:space="preserve"><g>	<path d="M530.3,77.9c0,41.8,2.4,69.2,12.2,93.6s27.6,46.4,58.5,77.2c2.2,2.2,2.2,5.7,0,7.9c-29.6,29.6-47.4,50.6-57.5,74.9  c-10.3,24.3-13.2,52.4-13.2,96c0,3.1-2.5,5.6-5.6,5.6c-41.8,0-69.2,2.4-93.6,12.2c-24.4,9.9-46.4,27.6-77.2,58.5  c-2.2,2.2-5.7,2.2-7.9,0c-29.6-29.6-50.6-47.4-74.9-57.5c-24.3-10.3-52.4-13.2-96-13.2c-3.1,0-5.6-2.5-5.6-5.6  c0-41.8-2.4-69.2-12.2-93.6c-9.9-24.4-27.6-46.4-58.5-77.2c-2.2-2.2-2.2-5.7,0-7.9c29.6-29.6,47.4-50.6,57.5-74.9  c10.3-24.3,13.2-52.4,13.2-96c0-3.1,2.5-5.6,5.6-5.6c41.8,0,69.2-2.4,93.6-12.2S315.1,32.5,346,1.7c2.2-2.2,5.7-2.2,7.9,0  c29.6,29.6,50.6,47.4,74.9,57.5c24.3,10.3,52.4,13.2,96,13.2C527.8,72.4,530.3,74.9,530.3,77.9z M532.2,175.7  c-10.1-24.9-12.9-52.2-13.1-92.2c-41.9-0.3-69.9-3.6-94.7-14.2c-24.9-10.4-46-27.8-74.4-56c-29.9,29.4-51.9,46.8-76.9,57.1  c-24.9,10.1-52.2,12.9-92.2,13.1c-0.3,41.9-3.6,69.9-14.2,94.7c-10.4,24.9-27.8,46-56,74.4c29.4,29.9,46.8,51.9,57.1,76.9  c10.1,24.9,12.9,52.2,13.1,92.2c41.9,0.3,69.9,3.6,94.7,14.2c24.9,10.4,46,27.8,74.4,56c29.9-29.4,51.9-46.8,76.9-57.1  c24.9-10.1,52.2-12.9,92.2-13.1c0.3-41.9,3.6-69.9,14.2-94.7c10.4-24.9,27.8-46,56-74.4C559.8,222.8,542.5,200.7,532.2,175.7  L532.2,175.7z"></path>	<path d="M349.9,126.9c34.7,0,66.1,14,88.9,36.8c22.8,22.8,36.8,54.2,36.8,88.9c0,34.7-14,66.1-36.8,88.9  c-22.8,22.8-54.2,36.8-88.9,36.8c-34.7,0-66.1-14-88.9-36.8c-22.8-22.8-36.8-54.2-36.8-88.9c0-34.7,14-66.1,36.8-88.9  C283.8,141,315.1,126.9,349.9,126.9z M431,171.6C410.3,151,381.5,138,349.9,138c-31.7,0-60.3,12.8-81.1,33.6  c-20.7,20.7-33.6,49.4-33.6,81.1c0,31.7,12.8,60.3,33.6,81.1c20.7,20.7,49.4,33.6,81.1,33.6c31.7,0,60.3-12.8,81.1-33.6  c20.7-20.7,33.6-49.4,33.6-81.1C464.6,221.1,451.8,192.5,431,171.6z"></path>	<path d="M489.8,431.9c-1.5-2.6-0.6-6,2.1-7.5c2.6-1.5,6-0.6,7.5,2.1L617.6,631c1.5,2.6,0.6,6-2.1,7.5c-1,0.6-2.1,0.8-3.2,0.7  l-70.3-6l-29.3,63.5c-1.2,2.8-4.6,4-7.4,2.8c-1.2-0.6-2.1-1.5-2.6-2.6L380.3,484.8c-1.5-2.6-0.6-6,2.1-7.5c2.6-1.5,6-0.6,7.5,2.1  l117.3,203.2l26.4-56.9c0.8-2.2,3.1-3.7,5.6-3.5l63.6,5.4L490,432.2L489.8,431.9z"></path>	<path d="M200.3,426.5c1.5-2.6,4.9-3.6,7.6-2.1c2.6,1.5,3.6,4.9,2.1,7.6L97.3,627.3l63.6-5.4c2.5-0.1,4.7,1.2,5.6,3.5l26.4,56.9  l117.3-203.2c1.5-2.6,4.9-3.6,7.5-2.1s3.6,4.9,2.1,7.5L197.2,696.8c-0.6,1.1-1.4,2.1-2.6,2.6c-2.8,1.2-6.1,0-7.4-2.8l-29.3-63.5  l-70.3,6c-1.1,0.1-2.2-0.1-3.2-0.7c-2.6-1.5-3.6-4.9-2.1-7.6l118-204.6L200.3,426.5z"></path></g></svg>