<svg xmlns="http://www.w3.org/2000/svg" xmlns:xlink="http://www.w3.org/1999/xlink" id="Layer_1" x="0px" y="0px" viewBox="0 0 700 700" style="enable-background:new 0 0 700 700;" xml:space="preserve"><g>	<path d="M350,12.3c-58.9,0-122.2,40-122.2,127.7c0,62.5,13.5,114.8,39,151.2c22.1,31.6,51.7,49,83.2,49c31.6,0,61.1-17.4,83.2-49  c25.5-36.4,39-88.7,39-151.2C472.2,52.3,408.9,12.3,350,12.3L350,12.3z M350,352.4c-35.7,0-68.8-19.3-93.3-54.2  c-27-38.5-41.2-93.2-41.2-158.3c0-43.1,14.6-79.4,42.1-104.9C282,12.5,314.8,0,350,0c35.2,0,68,12.5,92.4,35.1  C470,60.6,484.5,96.9,484.5,140c0,65-14.2,119.7-41.2,158.3C418.8,333.2,385.7,352.4,350,352.4L350,352.4z"></path>	<path d="M350,458.8c-23,0-44.5-7-60.6-19.7c-18.4-14.5-28.1-35.2-28.1-59.8c0-3.4,2.7-6.1,6.1-6.1c3.4,0,6.1,2.7,6.1,6.1  c0,46.1,39.6,67.2,76.4,67.2s76.4-21,76.4-67.2c0-3.4,2.7-6.1,6.1-6.1c3.4,0,6.1,2.7,6.1,6.1c0,24.6-9.7,45.3-28.1,59.8  C394.5,451.8,373,458.8,350,458.8L350,458.8z"></path>	<path d="M457.5,148.7c-0.4,0-0.8,0-1.2,0c-55.2-1.4-152.5-102.5-169-126.2c-1.9-2.8-1.2-6.6,1.5-8.6s6.6-1.2,8.6,1.5  C318,45.1,411,135.2,456.6,136.4c7.5,0.2,12.9-2.1,16.7-7.1c2.1-2.7,5.9-3.2,8.6-1.1c2.7,2.1,3.2,5.9,1.1,8.6  C477,144.7,468.4,148.7,457.5,148.7L457.5,148.7z"></path>	<path d="M239.1,146.6c-1.5,0-3-0.1-4.4-0.3c-7.6-0.9-13.6-4.1-17.8-9.5c-2.1-2.7-1.6-6.5,1.1-8.6c2.7-2.1,6.5-1.6,8.6,1.1  c2.1,2.7,5.2,4.3,9.5,4.8c28.5,3.4,90.5-40.6,112.1-57.9c2.6-2.1,6.5-1.7,8.6,0.9c2.1,2.6,1.7,6.5-0.9,8.6  C352.6,88.4,279.6,146.6,239.1,146.6L239.1,146.6z"></path>	<path d="M631.2,700H68.8c-1.6,0-3.2-0.6-4.3-1.8c-1.1-1.2-1.8-2.7-1.8-4.3l0.5-166.6c-0.9-97.5,53.5-106.1,106.2-114.4  c48.2-7.6,98-15.5,120.2-85.9c1-3.2,4.5-5,7.7-4c3.2,1,5,4.5,4,7.7c-24.5,77.7-80.6,86.6-130,94.4c-54,8.5-96.7,15.3-95.8,102.2  L75,687.7h550l-0.5-160.5c0.8-87-41.8-93.7-95.8-102.3c-49.5-7.8-105.5-16.7-130-94.4c-1-3.2,0.8-6.7,4-7.7c3.2-1,6.7,0.8,7.7,4  c22.2,70.4,72,78.3,120.2,85.9c52.7,8.3,107.1,16.9,106.2,114.4l0.5,166.6c0,1.6-0.6,3.2-1.8,4.3C634.4,699.3,632.8,700,631.2,700  L631.2,700z"></path>	<path d="M350,700c-1.9,0-3.7-0.8-4.9-2.5L243.7,561.8c-1.7-2.3-1.6-5.4,0.1-7.5l27-33.2L233.1,511c-2.3-0.6-4-2.4-4.4-4.7  L209.4,411c-0.7-3.3,1.5-6.6,4.8-7.2c3.3-0.7,6.6,1.5,7.2,4.8l18.4,91.6l43.2,11.6c2,0.5,3.6,2,4.3,4c0.6,2,0.2,4.1-1.1,5.8  l-29.9,36.9l98.5,131.8c2,2.7,1.5,6.6-1.2,8.6C352.6,699.6,351.3,700,350,700L350,700z"></path>	<path d="M350,700c-1.3,0-2.6-0.4-3.7-1.2c-2.7-2-3.3-5.9-1.2-8.6l98.5-131.8l-29.9-36.9c-1.3-1.6-1.7-3.8-1.1-5.8  c0.7-2,2.3-3.5,4.3-4l43.2-11.6l18.4-91.6c0.7-3.3,3.9-5.5,7.2-4.8c3.3,0.7,5.5,3.9,4.8,7.2l-19.2,95.3c-0.5,2.3-2.2,4.1-4.4,4.7  l-37.7,10.1l26.9,33.2c1.8,2.2,1.8,5.3,0.1,7.5L354.9,697.5C353.7,699.1,351.9,700,350,700L350,700z"></path>	<circle cx="350.1" cy="517.3" r="19"></circle></g></svg>