<svg xmlns="http://www.w3.org/2000/svg" xmlns:xlink="http://www.w3.org/1999/xlink" x="0px" y="0px" viewBox="0 0 150 150" style="enable-background:new 0 0 150 150;" xml:space="preserve"><g>	<path d="M88.7,15.3c17.5,0,31.8,14.2,31.8,31.8c0,8.6-2.5,19.4-7.7,28.3c-1.6,2.8-3.5,5.4-5.7,7.7c0.2,1.6,0.5,2.9,0.9,3.8  c0.4,1,0.9,1.4,1.4,1.6c3.7,1.4,12.5,2.1,20.8,4.6c8.3,2.6,16.5,7.5,18.7,17.7l0,0c0.1,0.6-0.1,1.2-0.5,1.6  c-32.7,29.6-86.3,29.6-119,0c-0.5-0.4-0.6-1-0.5-1.6c0.1-0.3,0.2-0.7,0.2-1C19,107,9.6,102,1.8,94.9l0,0c-0.5-0.4-0.6-1-0.5-1.6  C3,85,9.7,81,16.3,79c6.6-2.1,13.7-2.6,16.5-3.7l0,0c0.5-0.2,0.8-0.5,1.1-1.1c0.3-0.6,0.6-1.4,0.7-2.5c-1.8-1.9-3.4-4-4.7-6.3  c-4.2-7.1-6.2-15.8-6.2-22.7c0-14.1,11.5-25.6,25.6-25.6c6.8,0,13,2.7,17.6,7C72.6,18.6,80.3,15.3,88.7,15.3L88.7,15.3z M88.7,18.8  c-15.7,0-28.3,12.7-28.3,28.3c0,7.8,2.5,18.3,7.3,26.6C72.5,82,79.4,88,88.8,88c9.3,0,16.2-6,21.1-14.3c4.8-8.3,7.2-18.7,7.2-26.6  C117,31.4,104.4,18.8,88.7,18.8z M49.3,20.5c-12.3,0-22.2,9.9-22.2,22.2c0,6.2,1.9,14.4,5.7,20.9c3.8,6.5,9.2,11.2,16.5,11.2  c4.9,0,9-2.1,12.3-5.6C58.5,61.8,57,53.7,57,47.1c0-7.8,2.9-15,7.5-20.5C60.5,22.8,55.2,20.5,49.3,20.5L49.3,20.5z M63.1,72.5  c-3.7,3.5-8.4,5.7-13.8,5.7c-4.5,0-8.4-1.5-11.8-4c-0.2,0.5-0.3,1-0.6,1.5c-0.6,1.2-1.6,2.3-2.9,2.8l0,0l0,0  c-4,1.5-10.6,1.8-16.7,3.7C11.5,84,6.5,86.9,4.8,93c7.4,6.4,16,10.9,25.3,13.5c3.3-7.4,10.3-11.3,17.3-13.5  c8.3-2.6,17.1-3.2,20.8-4.6c0.7-0.3,1.2-0.7,1.7-1.6c0.4-0.8,0.7-2,1-3.5c-2.3-2.3-4.3-5.1-6-8C64.1,74.4,63.6,73.5,63.1,72.5  L63.1,72.5z M104,85.8c-4.3,3.4-9.4,5.5-15.3,5.5c-5.8,0-10.8-2.1-15-5.3c-0.2,0.9-0.5,1.7-0.9,2.4c-0.7,1.5-1.9,2.7-3.5,3.3  c-4.8,1.8-13.2,2.3-20.9,4.7c-7.4,2.3-13.9,6.1-16.1,14.2c31.2,27.5,81.7,27.5,112.9,0c-2.1-8.1-8.6-11.9-16.1-14.2  c-7.8-2.4-16.1-2.9-20.9-4.7c-1.6-0.6-2.7-1.9-3.3-3.4C104.4,87.5,104.2,86.7,104,85.8L104,85.8z"></path></g></svg>