<svg xmlns="http://www.w3.org/2000/svg" xmlns:xlink="http://www.w3.org/1999/xlink" x="0px" y="0px" viewBox="0 0 150 150" style="enable-background:new 0 0 150 150;" xml:space="preserve"><style type="text/css">	.icon_trophy{display:none;}	.icon_trophy_inner{display:inline;}</style><g class="icon_trophy">	<path class="icon_trophy_inner" d="M88.7,15.3c17.5,0,31.8,14.2,31.8,31.8c0,8.6-2.5,19.4-7.7,28.3c-1.6,2.8-3.5,5.4-5.7,7.7  c0.2,1.6,0.5,2.9,0.9,3.8c0.4,1,0.9,1.4,1.4,1.6c3.7,1.4,12.5,2.1,20.8,4.6c8.3,2.6,16.5,7.5,18.7,17.7l0,0  c0.1,0.6-0.1,1.2-0.5,1.6c-32.7,29.6-86.3,29.6-119,0c-0.5-0.4-0.6-1-0.5-1.6c0.1-0.3,0.2-0.7,0.2-1C19,107,9.6,102,1.8,94.9l0,0  c-0.5-0.4-0.6-1-0.5-1.6C3,85,9.7,81,16.3,79c6.6-2.1,13.7-2.6,16.5-3.7l0,0c0.5-0.2,0.8-0.5,1.1-1.1c0.3-0.6,0.6-1.4,0.7-2.5  c-1.8-1.9-3.4-4-4.7-6.3c-4.2-7.1-6.2-15.8-6.2-22.7c0-14.1,11.5-25.6,25.6-25.6c6.8,0,13,2.7,17.6,7  C72.6,18.6,80.3,15.3,88.7,15.3L88.7,15.3z M88.7,18.8c-15.7,0-28.3,12.7-28.3,28.3c0,7.8,2.5,18.3,7.3,26.6  C72.5,82,79.4,88,88.8,88c9.3,0,16.2-6,21.1-14.3c4.8-8.3,7.2-18.7,7.2-26.6C117,31.4,104.4,18.8,88.7,18.8z M49.3,20.5  c-12.3,0-22.2,9.9-22.2,22.2c0,6.2,1.9,14.4,5.7,20.9c3.8,6.5,9.2,11.2,16.5,11.2c4.9,0,9-2.1,12.3-5.6C58.5,61.8,57,53.7,57,47.1  c0-7.8,2.9-15,7.5-20.5C60.5,22.8,55.2,20.5,49.3,20.5L49.3,20.5z M63.1,72.5c-3.7,3.5-8.4,5.7-13.8,5.7c-4.5,0-8.4-1.5-11.8-4  c-0.2,0.5-0.3,1-0.6,1.5c-0.6,1.2-1.6,2.3-2.9,2.8l0,0l0,0c-4,1.5-10.6,1.8-16.7,3.7C11.5,84,6.5,86.9,4.8,93  c7.4,6.4,16,10.9,25.3,13.5c3.3-7.4,10.3-11.3,17.3-13.5c8.3-2.6,17.1-3.2,20.8-4.6c0.7-0.3,1.2-0.7,1.7-1.6c0.4-0.8,0.7-2,1-3.5  c-2.3-2.3-4.3-5.1-6-8C64.1,74.4,63.6,73.5,63.1,72.5L63.1,72.5z M104,85.8c-4.3,3.4-9.4,5.5-15.3,5.5c-5.8,0-10.8-2.1-15-5.3  c-0.2,0.9-0.5,1.7-0.9,2.4c-0.7,1.5-1.9,2.7-3.5,3.3c-4.8,1.8-13.2,2.3-20.9,4.7c-7.4,2.3-13.9,6.1-16.1,14.2  c31.2,27.5,81.7,27.5,112.9,0c-2.1-8.1-8.6-11.9-16.1-14.2c-7.8-2.4-16.1-2.9-20.9-4.7c-1.6-0.6-2.7-1.9-3.3-3.4  C104.4,87.5,104.2,86.7,104,85.8L104,85.8z"></path></g><g>	<path d="M51.7,75.8L51.7,75.8c7.9,6.1,15.4,8.8,17.9,9.5v38.2c-4.4,0-18.5,0.7-18.5,9.3v1.1h47.7v-1.1c0-8.6-14.1-9.3-18.5-9.3  V85.3c2.5-0.8,9.9-3.4,17.8-9.6l0,0.1c1.8-1,44.4-24.8,41.8-42.1c-0.9-6.1-7.2-10.5-18.6-13.2c0-1.1-0.1-2.2-0.1-3.4l-0.1-1.1  l-92.7,0l-0.1,1.1c-0.1,1.2-0.1,2.3-0.1,3.4C17,23.2,10.8,27.6,9.9,33.7C7.4,51,49.9,74.8,51.7,75.8L51.7,75.8z M121.6,22.8  c10.1,2.4,15.6,6.2,16.3,11.2c1.5,10.2-15.9,23.8-28.4,32.2c8.3-6.9,23.7-21,21.4-29.6c-0.9-3.3-4.1-5.3-9.5-6.1  C121.5,28,121.6,25.5,121.6,22.8L121.6,22.8z M128.7,37.2c1.6,6-8.9,17-17.6,24.7c4.9-7.4,8.7-16.9,10-29.2  C125.5,33.4,128,34.9,128.7,37.2L128.7,37.2z M30.8,18.3h88.4c1.3,24.3-6.4,39.8-15.4,49.5c-0.2,0.1-0.4,0.3-0.5,0.4l0.1,0.1  c-1.8,1.9-3.7,3.7-5.6,5.2c-0.4,0.2-0.6,0.3-0.6,0.3l0.1,0.1c-9,7-17.5,9.3-18.3,9.5l-0.9,0.2v42.3l1.2,0c0,0,0.4,0,1,0  c2.6,0,14.7,0.3,16.1,5.9l-42.9,0c0.5-2.1,2.6-3.7,6.2-4.7c3.8-1.1,8.2-1.2,9.9-1.2c0.7,0,1,0,1,0l1.2,0V83.6L71,83.4  C70.6,83.3,28,72.3,30.8,18.3L30.8,18.3z M39,61.9c-8.7-7.7-19.3-18.7-17.6-24.7c0.6-2.3,3.2-3.8,7.6-4.5  C30.3,45,34.1,54.5,39,61.9L39,61.9z M12.1,34c0.7-5,6.2-8.8,16.3-11.2c0,2.7,0.1,5.2,0.3,7.6c-5.4,0.8-8.7,2.9-9.5,6.1  c-2.3,8.6,13,22.7,21.3,29.6C28,57.8,10.6,44.2,12.1,34L12.1,34z"></path>	<path d="M63.3,64.1l11.7-8l11.7,8l-4-13.6l11.2-8.6l-14.2-0.4L75,28.1l-4.8,13.3l-14.2,0.4l11.2,8.6L63.3,64.1z M62.5,43.9l9.4-0.3  l3.1-8.8l3.1,8.8l9.4,0.3l-7.4,5.7l2.6,9L75,53.3l-7.7,5.3l2.6-9L62.5,43.9z"></path></g></svg>