<svg xmlns="http://www.w3.org/2000/svg" xmlns:xlink="http://www.w3.org/1999/xlink" id="Layer_1" x="0px" y="0px" viewBox="0 0 150 150" style="enable-background:new 0 0 150 150;" xml:space="preserve"><style type="text/css">	.stroke_newsletter{stroke:currentcolor;stroke-miterlimit:10;}</style><g transform="translate(1.4065934065934016 1.4065934065934016) scale(2.81 2.81)">	<path class="stroke_newsletter" d="M51,5.2C51,5.1,51,5,51,5c0,0,0,0,0,0c0-0.1-0.1-0.2-0.1-0.3c0,0,0,0,0,0c0,0,0,0,0,0c0,0,0-0.1-0.1-0.1  c0,0-0.1-0.1-0.1-0.1c0,0,0,0,0,0c-0.1-0.1-0.2-0.1-0.2-0.1c0,0,0,0,0,0c-0.1,0-0.1,0-0.2,0c0,0,0,0-0.1,0c0,0,0,0-0.1,0L2,15  c-0.3,0.1-0.6,0.4-0.6,0.7c0,0.3,0.1,0.7,0.4,0.8l13,7l4,12.9c0,0,0,0,0,0c0,0,0,0.1,0,0.1c0,0.1,0.1,0.1,0.1,0.2c0,0,0,0,0,0  c0,0,0,0,0,0c0.1,0,0.1,0.1,0.2,0.1c0,0,0,0,0.1,0c0.1,0,0.2,0.1,0.3,0.1c0,0,0,0,0,0c0.1,0,0.2,0,0.3-0.1c0,0,0,0,0.1,0  c0.1,0,0.1-0.1,0.2-0.1c0,0,0,0,0,0l6.6-6.7l12.8,6.9C39.7,37,39.9,37,40,37c0.1,0,0.2,0,0.3-0.1c0.2-0.1,0.4-0.3,0.5-0.5L51,5.3  C51,5.3,51,5.3,51,5.2C51,5.2,51,5.2,51,5.2z M44.1,7.3L15.5,22L4.5,16.1L44.1,7.3z M42.4,10L21.7,25.9c0,0,0,0,0,0  c-0.1,0-0.1,0.1-0.2,0.2c0,0,0,0,0,0c0,0,0,0,0,0c0,0.1-0.1,0.1-0.1,0.2c0,0,0,0,0,0l-1.8,6.8l-3.1-9.8L42.4,10z M21.2,33.4  l1.5-5.6l2.6,1.4L21.2,33.4z M39.5,35l-15.8-8.5L48.6,7.4L39.5,35z"></path>	<path class="stroke_newsletter" d="M5.4,48.1c-0.2,0-0.4-0.1-0.6-0.2c-0.3-0.3-0.3-0.8,0-1.2l7.9-8c0.3-0.3,0.8-0.3,1.2,0c0.3,0.3,0.3,0.8,0,1.2  l-7.9,8C5.8,48,5.6,48.1,5.4,48.1z"></path>	<path class="stroke_newsletter" d="M17.5,47.6c-0.2,0-0.4-0.1-0.6-0.2c-0.3-0.3-0.3-0.8,0-1.2l7.9-8c0.3-0.3,0.8-0.3,1.2,0c0.3,0.3,0.3,0.8,0,1.2  l-7.9,8C17.9,47.5,17.7,47.6,17.5,47.6z"></path>	<path class="stroke_newsletter" d="M4.8,37.9c-0.2,0-0.4-0.1-0.6-0.2c-0.3-0.3-0.3-0.8,0-1.2l5.8-5.9c0.3-0.3,0.8-0.3,1.2,0  c0.3,0.3,0.3,0.8,0,1.2l-5.8,5.9C5.2,37.8,5,37.9,4.8,37.9z"></path></g></svg>