<svg xmlns="http://www.w3.org/2000/svg" xmlns:xlink="http://www.w3.org/1999/xlink" id="Layer_1" x="0px" y="0px" viewBox="0 0 700 700" style="enable-background:new 0 0 700 700;" xml:space="preserve"><g>	<path d="M159.1,228.5h53.7c2.6,0,4.8-2.1,4.8-4.8c0-2.6-2.1-4.8-4.8-4.8h-53.7c-2.6,0-4.8,2.1-4.8,4.8  C154.3,226.3,156.6,228.5,159.1,228.5L159.1,228.5z"></path>	<path d="M159.1,280.8h53.7c2.6,0,4.8-2.1,4.8-4.8c0-2.6-2.1-4.8-4.8-4.8h-53.7c-2.6,0-4.8,2.1-4.8,4.8  C154.3,278.7,156.6,280.8,159.1,280.8L159.1,280.8z"></path>	<path d="M159.1,333.2h53.7c2.6,0,4.8-2.1,4.8-4.8c0-2.6-2.1-4.8-4.8-4.8h-53.7c-2.6,0-4.8,2.1-4.8,4.8  C154.3,331,156.6,333.2,159.1,333.2L159.1,333.2z"></path>	<path d="M159.1,385.5h53.7c2.6,0,4.8-2.1,4.8-4.8c0-2.6-2.1-4.8-4.8-4.8h-53.7c-2.6,0-4.8,2.1-4.8,4.8  C154.3,383.4,156.6,385.5,159.1,385.5L159.1,385.5z"></path>	<path d="M159.1,438h53.7c2.6,0,4.8-2.1,4.8-4.8s-2.1-4.8-4.8-4.8h-53.7c-2.6,0-4.8,2.1-4.8,4.8S156.6,438,159.1,438L159.1,438z"></path>	<path d="M212.8,490.3c2.6,0,4.8-2.1,4.8-4.8c0-2.6-2.1-4.8-4.8-4.8h-53.7c-2.6,0-4.8,2.1-4.8,4.8c0,2.6,2.1,4.8,4.8,4.8H212.8z"></path>	<path d="M277.3,228.5H331c2.6,0,4.8-2.1,4.8-4.8c0-2.6-2.1-4.8-4.8-4.8h-53.7c-2.6,0-4.8,2.1-4.8,4.8  C272.5,226.3,274.8,228.5,277.3,228.5z"></path>	<path d="M277.3,280.8H331c2.6,0,4.8-2.1,4.8-4.8c0-2.6-2.1-4.8-4.8-4.8h-53.7c-2.6,0-4.8,2.1-4.8,4.8  C272.5,278.7,274.8,280.8,277.3,280.8z"></path>	<path d="M277.3,333.2H331c2.6,0,4.8-2.1,4.8-4.8c0-2.6-2.1-4.8-4.8-4.8h-53.7c-2.6,0-4.8,2.1-4.8,4.8  C272.5,331,274.8,333.2,277.3,333.2z"></path>	<path d="M277.3,385.5H331c2.6,0,4.8-2.1,4.8-4.8c0-2.6-2.1-4.8-4.8-4.8h-53.7c-2.6,0-4.8,2.1-4.8,4.8  C272.5,383.4,274.8,385.5,277.3,385.5z"></path>	<path d="M277.3,438H331c2.6,0,4.8-2.1,4.8-4.8s-2.1-4.8-4.8-4.8h-53.7c-2.6,0-4.8,2.1-4.8,4.8S274.8,438,277.3,438z"></path>	<path d="M277.3,490.3H331c2.6,0,4.8-2.1,4.8-4.8c0-2.6-2.1-4.8-4.8-4.8h-53.7c-2.6,0-4.8,2.1-4.8,4.8  C272.5,488.2,274.8,490.3,277.3,490.3z"></path>	<path d="M536,367.4h-84.6c-2.6,0-4.8,2.1-4.8,4.8c0,2.6,2.1,4.8,4.8,4.8H536c2.6,0,4.8-2.1,4.8-4.8  C540.8,369.5,538.6,367.4,536,367.4z"></path>	<path d="M536,433.2h-84.6c-2.6,0-4.8,2.1-4.8,4.8c0,2.6,2.1,4.8,4.8,4.8H536c2.6,0,4.8-2.1,4.8-4.8  C540.8,435.3,538.6,433.2,536,433.2z"></path>	<path d="M536,499h-84.6c-2.6,0-4.8,2.1-4.8,4.8c0,2.6,2.1,4.8,4.8,4.8H536c2.6,0,4.8-2.1,4.8-4.8C540.8,501.2,538.6,499,536,499z"></path>	<path d="M536,564.8h-84.6c-2.6,0-4.8,2.1-4.8,4.8s2.1,4.8,4.8,4.8H536c2.6,0,4.8-2.1,4.8-4.8C540.8,567,538.6,564.8,536,564.8z"></path>	<path d="M685.8,685h-82.5l0-433.1c0-2.6-2.1-4.8-4.8-4.8H393.4v-90.6c0-2.6-2.1-4.8-4.8-4.8l-287.2,0c-2.6,0-4.8,2.1-4.8,4.8v528.4  l-82.5,0c-2.6,0-4.8,2.1-4.8,4.8s2.1,4.8,4.8,4.8h671.7c2.6,0,4.8-2.1,4.8-4.8C690.6,687,688.5,685,685.8,685L685.8,685z   M106.1,251.9v-90.6H384v523.6h-94v-91.6c0-2.6-2.1-4.8-4.8-4.8h-80.4c-2.6,0-4.8,2.1-4.8,4.8v91.6h-94v-433H106.1z M209.6,685  v-86.9h71V685H209.6z M393.5,685V256.7h200.3V685H393.5z"></path></g></svg>